<?xml version="1.0" standalone="no"?>
<!DOCTYPE svg PUBLIC "-//W3C//DTD SVG 20010904//EN"
 "http://www.w3.org/TR/2001/REC-SVG-20010904/DTD/svg10.dtd">
<svg version="1.0" xmlns="http://www.w3.org/2000/svg"
 width="512.000000pt" height="512.000000pt" viewBox="0 0 512.000000 512.000000"
 preserveAspectRatio="xMidYMid meet">

<g transform="translate(0.000000,512.000000) scale(0.100000,-0.100000)"
fill="#000000" stroke="none">
<path d="M546 4869 c-62 -15 -153 -68 -197 -116 -22 -24 -55 -74 -72 -111 -29
-61 -32 -76 -32 -163 0 -90 2 -99 37 -171 45 -91 103 -147 196 -191 l67 -32
1048 -3 1047 -2 0 400 0 400 -1027 -1 c-580 -1 -1045 -5 -1067 -10z m1934
-389 l0 -240 -720 0 -720 0 0 240 0 240 720 0 720 0 0 -240z m-1777 146 c103
-43 128 -177 48 -257 -112 -113 -296 -12 -267 146 18 94 128 150 219 111z"/>
<path d="M1200 4480 l0 -80 80 0 80 0 0 80 0 80 -80 0 -80 0 0 -80z"/>
<path d="M1520 4480 l0 -80 80 0 80 0 0 80 0 80 -80 0 -80 0 0 -80z"/>
<path d="M1840 4480 l0 -80 80 0 80 0 0 80 0 80 -80 0 -80 0 0 -80z"/>
<path d="M2160 4480 l0 -80 80 0 80 0 0 80 0 80 -80 0 -80 0 0 -80z"/>
<path d="M2800 4480 l0 -400 80 0 80 0 0 400 0 400 -80 0 -80 0 0 -400z"/>
<path d="M4515 4866 c-16 -8 -90 -75 -164 -149 l-134 -135 12 -32 c28 -82 6
-166 -64 -235 -60 -60 -101 -75 -211 -75 l-79 0 -300 -300 -300 -300 103 -102
102 -103 610 610 c439 439 613 619 621 644 39 118 -82 228 -196 177z"/>
<path d="M3120 4480 l0 -80 455 0 456 0 24 25 c16 15 25 36 25 55 0 19 -9 40
-25 55 l-24 25 -456 0 -455 0 0 -80z"/>
<path d="M4035 3746 c-16 -8 -122 -106 -234 -219 l-205 -206 100 -104 99 -105
213 212 c145 144 216 222 223 245 39 118 -82 228 -196 177z"/>
<path d="M2793 3666 c-23 -7 -56 -23 -75 -34 -55 -35 -393 -383 -435 -449 -58
-90 -77 -148 -147 -462 l-64 -283 -178 -179 -179 -179 422 -422 423 -423 139
139 138 138 316 64 c174 35 341 72 372 83 83 29 177 85 240 143 l56 51 -43 19
c-89 40 -163 141 -175 239 -5 45 -8 49 -33 49 -66 0 -134 33 -195 95 -63 62
-95 129 -95 196 0 25 -4 29 -29 29 -16 0 -53 8 -82 17 -76 24 -168 116 -192
192 -30 95 -16 193 39 273 l27 39 -79 80 -79 80 -7 -168 c-11 -302 -77 -457
-281 -669 l-96 -99 -57 57 -58 57 100 103 c111 117 162 196 201 313 24 73 26
98 31 281 l4 202 79 78 79 79 293 -292 c312 -312 317 -316 397 -298 43 9 97
66 106 111 14 76 3 90 -318 411 -331 330 -347 342 -462 349 -35 2 -79 -2 -103
-10z m474 -1811 c19 -93 21 -90 -51 -103 -96 -18 -91 -20 -105 59 -7 38 -10
73 -7 76 7 8 117 32 136 30 9 -2 19 -24 27 -62z m-318 -57 c7 -35 14 -70 17
-79 4 -13 -8 -19 -58 -28 -35 -7 -70 -14 -79 -17 -13 -4 -19 8 -28 58 -7 35
-14 70 -17 79 -4 15 34 27 147 48 4 0 12 -27 18 -61z"/>
<path d="M4355 3426 c-16 -8 -139 -124 -272 -258 -213 -214 -243 -248 -253
-288 -32 -121 -112 -200 -233 -231 -60 -15 -142 -98 -153 -154 -19 -104 68
-190 174 -170 32 6 92 61 479 448 317 316 446 451 454 475 39 119 -82 229
-196 178z"/>
<path d="M4675 3106 c-16 -8 -227 -211 -467 -452 -387 -389 -437 -443 -444
-477 -19 -106 67 -192 174 -172 32 6 92 61 479 448 317 316 446 451 454 475
39 119 -82 229 -196 178z"/>
<path d="M3134 2844 c-55 -131 94 -257 211 -180 l25 16 -101 98 c-56 53 -105
99 -110 100 -5 2 -16 -13 -25 -34z"/>
<path d="M1375 2060 l-60 -60 130 -130 130 -130 -58 -57 -57 -58 -130 130
-130 130 -223 -223 -222 -222 583 -582 582 -583 222 223 223 222 -408 408
c-224 224 -407 412 -407 418 0 12 94 104 106 104 5 0 192 -183 416 -407 l408
-408 62 63 63 62 -580 580 c-319 319 -582 580 -585 580 -3 0 -32 -27 -65 -60z"/>
</g>
</svg>
